<mxfile host="app.diagrams.net" modified="2021-02-09T07:22:49.067Z" agent="5.0 (Macintosh; Intel Mac OS X 10_15_4) AppleWebKit/537.36 (KHTML, like Gecko) Chrome/88.0.4324.146 Safari/537.36" etag="y2SeBd2mheAB2D70BM_x" version="14.2.7" type="github">
  <diagram id="C5RBs43oDa-KdzZeNtuy" name="Page-1">
    <mxGraphModel dx="2253" dy="664" grid="1" gridSize="10" guides="1" tooltips="1" connect="1" arrows="1" fold="1" page="1" pageScale="1" pageWidth="827" pageHeight="1169" math="0" shadow="0">
      <root>
        <mxCell id="WIyWlLk6GJQsqaUBKTNV-0" />
        <mxCell id="WIyWlLk6GJQsqaUBKTNV-1" parent="WIyWlLk6GJQsqaUBKTNV-0" />
        <mxCell id="vOabscRvbY1FQWNOdvIU-8" style="edgeStyle=orthogonalEdgeStyle;rounded=0;orthogonalLoop=1;jettySize=auto;html=1;exitX=0.5;exitY=0.5;exitDx=0;exitDy=0;exitPerimeter=0;entryX=0;entryY=0.5;entryDx=0;entryDy=0;" edge="1" parent="WIyWlLk6GJQsqaUBKTNV-1" source="vOabscRvbY1FQWNOdvIU-0" target="vOabscRvbY1FQWNOdvIU-7">
          <mxGeometry relative="1" as="geometry" />
        </mxCell>
        <mxCell id="vOabscRvbY1FQWNOdvIU-40" style="edgeStyle=orthogonalEdgeStyle;rounded=0;orthogonalLoop=1;jettySize=auto;html=1;exitX=0.5;exitY=0.5;exitDx=0;exitDy=0;exitPerimeter=0;entryX=0;entryY=0.5;entryDx=0;entryDy=0;" edge="1" parent="WIyWlLk6GJQsqaUBKTNV-1" source="vOabscRvbY1FQWNOdvIU-0" target="vOabscRvbY1FQWNOdvIU-39">
          <mxGeometry relative="1" as="geometry" />
        </mxCell>
        <mxCell id="vOabscRvbY1FQWNOdvIU-0" value="Actor" style="shape=umlActor;verticalLabelPosition=bottom;verticalAlign=top;html=1;outlineConnect=0;" vertex="1" parent="WIyWlLk6GJQsqaUBKTNV-1">
          <mxGeometry x="-70" y="360" width="30" height="60" as="geometry" />
        </mxCell>
        <mxCell id="vOabscRvbY1FQWNOdvIU-11" style="edgeStyle=orthogonalEdgeStyle;rounded=0;orthogonalLoop=1;jettySize=auto;html=1;exitX=0.5;exitY=1;exitDx=0;exitDy=0;" edge="1" parent="WIyWlLk6GJQsqaUBKTNV-1" source="vOabscRvbY1FQWNOdvIU-7" target="vOabscRvbY1FQWNOdvIU-10">
          <mxGeometry relative="1" as="geometry" />
        </mxCell>
        <mxCell id="vOabscRvbY1FQWNOdvIU-16" style="edgeStyle=orthogonalEdgeStyle;rounded=0;orthogonalLoop=1;jettySize=auto;html=1;exitX=1;exitY=0.5;exitDx=0;exitDy=0;" edge="1" parent="WIyWlLk6GJQsqaUBKTNV-1" source="vOabscRvbY1FQWNOdvIU-7" target="vOabscRvbY1FQWNOdvIU-15">
          <mxGeometry relative="1" as="geometry" />
        </mxCell>
        <mxCell id="vOabscRvbY1FQWNOdvIU-7" value="合法性" style="rhombus;whiteSpace=wrap;html=1;" vertex="1" parent="WIyWlLk6GJQsqaUBKTNV-1">
          <mxGeometry x="110" y="120" width="120" height="100" as="geometry" />
        </mxCell>
        <mxCell id="vOabscRvbY1FQWNOdvIU-9" value="用户导入license文件" style="text;html=1;align=center;verticalAlign=middle;resizable=0;points=[];autosize=1;" vertex="1" parent="WIyWlLk6GJQsqaUBKTNV-1">
          <mxGeometry y="270" width="120" height="20" as="geometry" />
        </mxCell>
        <mxCell id="vOabscRvbY1FQWNOdvIU-10" value="结束" style="rounded=0;whiteSpace=wrap;html=1;" vertex="1" parent="WIyWlLk6GJQsqaUBKTNV-1">
          <mxGeometry x="125" y="370" width="90" height="40" as="geometry" />
        </mxCell>
        <mxCell id="vOabscRvbY1FQWNOdvIU-14" value="不合法" style="text;html=1;align=center;verticalAlign=middle;resizable=0;points=[];autosize=1;" vertex="1" parent="WIyWlLk6GJQsqaUBKTNV-1">
          <mxGeometry x="155" y="240" width="50" height="20" as="geometry" />
        </mxCell>
        <mxCell id="vOabscRvbY1FQWNOdvIU-38" style="edgeStyle=orthogonalEdgeStyle;rounded=0;orthogonalLoop=1;jettySize=auto;html=1;exitX=1;exitY=0.5;exitDx=0;exitDy=0;entryX=0.5;entryY=0;entryDx=0;entryDy=0;" edge="1" parent="WIyWlLk6GJQsqaUBKTNV-1" source="vOabscRvbY1FQWNOdvIU-15" target="vOabscRvbY1FQWNOdvIU-37">
          <mxGeometry relative="1" as="geometry" />
        </mxCell>
        <mxCell id="vOabscRvbY1FQWNOdvIU-15" value="解析license信息" style="rounded=0;whiteSpace=wrap;html=1;" vertex="1" parent="WIyWlLk6GJQsqaUBKTNV-1">
          <mxGeometry x="354" y="140" width="120" height="60" as="geometry" />
        </mxCell>
        <mxCell id="vOabscRvbY1FQWNOdvIU-17" value="合法" style="text;html=1;align=center;verticalAlign=middle;resizable=0;points=[];autosize=1;" vertex="1" parent="WIyWlLk6GJQsqaUBKTNV-1">
          <mxGeometry x="240" y="140" width="40" height="20" as="geometry" />
        </mxCell>
        <mxCell id="vOabscRvbY1FQWNOdvIU-18" value="" style="endArrow=none;dashed=1;html=1;entryX=0.5;entryY=1;entryDx=0;entryDy=0;exitX=0.5;exitY=0;exitDx=0;exitDy=0;" edge="1" parent="WIyWlLk6GJQsqaUBKTNV-1" source="vOabscRvbY1FQWNOdvIU-24" target="vOabscRvbY1FQWNOdvIU-15">
          <mxGeometry width="50" height="50" relative="1" as="geometry">
            <mxPoint x="413.5" y="295.5" as="sourcePoint" />
            <mxPoint x="440" y="320" as="targetPoint" />
          </mxGeometry>
        </mxCell>
        <mxCell id="vOabscRvbY1FQWNOdvIU-24" value="License Info" style="swimlane;fontStyle=0;childLayout=stackLayout;horizontal=1;startSize=26;fillColor=none;horizontalStack=0;resizeParent=1;resizeParentMax=0;resizeLast=0;collapsible=1;marginBottom=0;" vertex="1" parent="WIyWlLk6GJQsqaUBKTNV-1">
          <mxGeometry x="294" y="260" width="240" height="260" as="geometry" />
        </mxCell>
        <mxCell id="vOabscRvbY1FQWNOdvIU-26" value="开始时间（start_time）" style="text;strokeColor=none;fillColor=none;align=left;verticalAlign=top;spacingLeft=4;spacingRight=4;overflow=hidden;rotatable=0;points=[[0,0.5],[1,0.5]];portConstraint=eastwest;" vertex="1" parent="vOabscRvbY1FQWNOdvIU-24">
          <mxGeometry y="26" width="240" height="26" as="geometry" />
        </mxCell>
        <mxCell id="vOabscRvbY1FQWNOdvIU-28" value="结束时间（end_time）" style="text;strokeColor=none;fillColor=none;align=left;verticalAlign=top;spacingLeft=4;spacingRight=4;overflow=hidden;rotatable=0;points=[[0,0.5],[1,0.5]];portConstraint=eastwest;" vertex="1" parent="vOabscRvbY1FQWNOdvIU-24">
          <mxGeometry y="52" width="240" height="26" as="geometry" />
        </mxCell>
        <mxCell id="vOabscRvbY1FQWNOdvIU-29" value="UUID" style="text;strokeColor=none;fillColor=none;align=left;verticalAlign=top;spacingLeft=4;spacingRight=4;overflow=hidden;rotatable=0;points=[[0,0.5],[1,0.5]];portConstraint=eastwest;" vertex="1" parent="vOabscRvbY1FQWNOdvIU-24">
          <mxGeometry y="78" width="240" height="26" as="geometry" />
        </mxCell>
        <mxCell id="vOabscRvbY1FQWNOdvIU-30" value="域名数量（domain_num）" style="text;strokeColor=none;fillColor=none;align=left;verticalAlign=top;spacingLeft=4;spacingRight=4;overflow=hidden;rotatable=0;points=[[0,0.5],[1,0.5]];portConstraint=eastwest;" vertex="1" parent="vOabscRvbY1FQWNOdvIU-24">
          <mxGeometry y="104" width="240" height="26" as="geometry" />
        </mxCell>
        <mxCell id="vOabscRvbY1FQWNOdvIU-31" value="授权类型（license_type  [auto/manual]）" style="text;strokeColor=none;fillColor=none;align=left;verticalAlign=top;spacingLeft=4;spacingRight=4;overflow=hidden;rotatable=0;points=[[0,0.5],[1,0.5]];portConstraint=eastwest;" vertex="1" parent="vOabscRvbY1FQWNOdvIU-24">
          <mxGeometry y="130" width="240" height="26" as="geometry" />
        </mxCell>
        <mxCell id="vOabscRvbY1FQWNOdvIU-32" value="硬件指纹（fingerprint）" style="text;strokeColor=none;fillColor=none;align=left;verticalAlign=top;spacingLeft=4;spacingRight=4;overflow=hidden;rotatable=0;points=[[0,0.5],[1,0.5]];portConstraint=eastwest;" vertex="1" parent="vOabscRvbY1FQWNOdvIU-24">
          <mxGeometry y="156" width="240" height="26" as="geometry" />
        </mxCell>
        <mxCell id="vOabscRvbY1FQWNOdvIU-33" value="用户ID（user_id）" style="text;strokeColor=none;fillColor=none;align=left;verticalAlign=top;spacingLeft=4;spacingRight=4;overflow=hidden;rotatable=0;points=[[0,0.5],[1,0.5]];portConstraint=eastwest;" vertex="1" parent="vOabscRvbY1FQWNOdvIU-24">
          <mxGeometry y="182" width="240" height="26" as="geometry" />
        </mxCell>
        <mxCell id="vOabscRvbY1FQWNOdvIU-35" value="数据签名（signature）防止数据被更改" style="text;strokeColor=#FF3333;fillColor=none;align=left;verticalAlign=top;spacingLeft=4;spacingRight=4;overflow=hidden;rotatable=0;points=[[0,0.5],[1,0.5]];portConstraint=eastwest;shadow=1;" vertex="1" parent="vOabscRvbY1FQWNOdvIU-24">
          <mxGeometry y="208" width="240" height="26" as="geometry" />
        </mxCell>
        <mxCell id="vOabscRvbY1FQWNOdvIU-36" value="授权状态（status）" style="text;strokeColor=none;fillColor=none;align=left;verticalAlign=top;spacingLeft=4;spacingRight=4;overflow=hidden;rotatable=0;points=[[0,0.5],[1,0.5]];portConstraint=eastwest;" vertex="1" parent="vOabscRvbY1FQWNOdvIU-24">
          <mxGeometry y="234" width="240" height="26" as="geometry" />
        </mxCell>
        <mxCell id="vOabscRvbY1FQWNOdvIU-37" value="DB" style="shape=datastore;whiteSpace=wrap;html=1;" vertex="1" parent="WIyWlLk6GJQsqaUBKTNV-1">
          <mxGeometry x="680" y="370" width="60" height="60" as="geometry" />
        </mxCell>
        <mxCell id="vOabscRvbY1FQWNOdvIU-42" style="edgeStyle=orthogonalEdgeStyle;rounded=0;orthogonalLoop=1;jettySize=auto;html=1;exitX=0.5;exitY=0;exitDx=0;exitDy=0;entryX=0.5;entryY=1;entryDx=0;entryDy=0;" edge="1" parent="WIyWlLk6GJQsqaUBKTNV-1" source="vOabscRvbY1FQWNOdvIU-39" target="vOabscRvbY1FQWNOdvIU-10">
          <mxGeometry relative="1" as="geometry" />
        </mxCell>
        <mxCell id="vOabscRvbY1FQWNOdvIU-45" style="edgeStyle=orthogonalEdgeStyle;rounded=0;orthogonalLoop=1;jettySize=auto;html=1;exitX=1;exitY=0.5;exitDx=0;exitDy=0;entryX=0;entryY=0.5;entryDx=0;entryDy=0;" edge="1" parent="WIyWlLk6GJQsqaUBKTNV-1" source="vOabscRvbY1FQWNOdvIU-39" target="vOabscRvbY1FQWNOdvIU-44">
          <mxGeometry relative="1" as="geometry" />
        </mxCell>
        <mxCell id="vOabscRvbY1FQWNOdvIU-39" value="lms获取授权" style="rhombus;whiteSpace=wrap;html=1;" vertex="1" parent="WIyWlLk6GJQsqaUBKTNV-1">
          <mxGeometry x="110" y="585" width="120" height="110" as="geometry" />
        </mxCell>
        <mxCell id="vOabscRvbY1FQWNOdvIU-41" value="lms 地址 和 UUID" style="text;html=1;align=center;verticalAlign=middle;resizable=0;points=[];autosize=1;" vertex="1" parent="WIyWlLk6GJQsqaUBKTNV-1">
          <mxGeometry y="550" width="110" height="20" as="geometry" />
        </mxCell>
        <mxCell id="vOabscRvbY1FQWNOdvIU-43" value="未授权或不合法" style="text;html=1;align=center;verticalAlign=middle;resizable=0;points=[];autosize=1;" vertex="1" parent="WIyWlLk6GJQsqaUBKTNV-1">
          <mxGeometry x="120" y="530" width="100" height="20" as="geometry" />
        </mxCell>
        <mxCell id="vOabscRvbY1FQWNOdvIU-47" style="edgeStyle=orthogonalEdgeStyle;rounded=0;orthogonalLoop=1;jettySize=auto;html=1;exitX=1;exitY=0.5;exitDx=0;exitDy=0;entryX=0.5;entryY=1;entryDx=0;entryDy=0;" edge="1" parent="WIyWlLk6GJQsqaUBKTNV-1" source="vOabscRvbY1FQWNOdvIU-44" target="vOabscRvbY1FQWNOdvIU-37">
          <mxGeometry relative="1" as="geometry" />
        </mxCell>
        <mxCell id="vOabscRvbY1FQWNOdvIU-44" value="解析license信息" style="rounded=0;whiteSpace=wrap;html=1;" vertex="1" parent="WIyWlLk6GJQsqaUBKTNV-1">
          <mxGeometry x="354" y="610" width="120" height="60" as="geometry" />
        </mxCell>
        <mxCell id="vOabscRvbY1FQWNOdvIU-46" value="" style="endArrow=none;dashed=1;html=1;entryX=0.5;entryY=1;entryDx=0;entryDy=0;exitX=0.5;exitY=0;exitDx=0;exitDy=0;entryPerimeter=0;" edge="1" parent="WIyWlLk6GJQsqaUBKTNV-1" target="vOabscRvbY1FQWNOdvIU-36">
          <mxGeometry width="50" height="50" relative="1" as="geometry">
            <mxPoint x="414" y="610" as="sourcePoint" />
            <mxPoint x="414" y="550" as="targetPoint" />
          </mxGeometry>
        </mxCell>
        <mxCell id="vOabscRvbY1FQWNOdvIU-49" style="edgeStyle=orthogonalEdgeStyle;rounded=0;orthogonalLoop=1;jettySize=auto;html=1;exitX=0;exitY=1;exitDx=0;exitDy=0;entryX=1;entryY=1;entryDx=0;entryDy=0;" edge="1" parent="WIyWlLk6GJQsqaUBKTNV-1" source="vOabscRvbY1FQWNOdvIU-39" target="vOabscRvbY1FQWNOdvIU-39">
          <mxGeometry relative="1" as="geometry">
            <Array as="points">
              <mxPoint x="100" y="668" />
              <mxPoint x="100" y="800" />
              <mxPoint x="280" y="800" />
              <mxPoint x="280" y="668" />
            </Array>
          </mxGeometry>
        </mxCell>
        <mxCell id="vOabscRvbY1FQWNOdvIU-50" value="定期从lms地址获取授权信息&lt;br&gt;若授权信息改变，更新数据库" style="text;html=1;align=center;verticalAlign=middle;resizable=0;points=[];autosize=1;" vertex="1" parent="WIyWlLk6GJQsqaUBKTNV-1">
          <mxGeometry x="110" y="710" width="170" height="30" as="geometry" />
        </mxCell>
        <mxCell id="vOabscRvbY1FQWNOdvIU-51" value="若lms地址失联以最近一次&lt;br&gt;获取到的信息作为授权信息" style="text;html=1;align=center;verticalAlign=middle;resizable=0;points=[];autosize=1;" vertex="1" parent="WIyWlLk6GJQsqaUBKTNV-1">
          <mxGeometry x="110" y="750" width="160" height="30" as="geometry" />
        </mxCell>
        <mxCell id="vOabscRvbY1FQWNOdvIU-52" value="&lt;font style=&quot;font-size: 24px&quot;&gt;后端激活waf&lt;/font&gt;" style="text;html=1;strokeColor=none;fillColor=none;align=center;verticalAlign=middle;whiteSpace=wrap;rounded=0;shadow=1;" vertex="1" parent="WIyWlLk6GJQsqaUBKTNV-1">
          <mxGeometry x="-250" y="790" width="220" height="70" as="geometry" />
        </mxCell>
        <mxCell id="vOabscRvbY1FQWNOdvIU-53" value="" style="endArrow=none;dashed=1;html=1;exitX=0;exitY=0.5;exitDx=0;exitDy=0;" edge="1" parent="WIyWlLk6GJQsqaUBKTNV-1" source="vOabscRvbY1FQWNOdvIU-37">
          <mxGeometry width="50" height="50" relative="1" as="geometry">
            <mxPoint x="380" y="450" as="sourcePoint" />
            <mxPoint x="540" y="400" as="targetPoint" />
          </mxGeometry>
        </mxCell>
      </root>
    </mxGraphModel>
  </diagram>
</mxfile>
